<svg id="Layer_1" data-name="Layer 1" xmlns="http://www.w3.org/2000/svg" xmlns:xlink="http://www.w3.org/1999/xlink" viewBox="0 0 2320.85 2482.76"><defs><style>.cls-1{fill:#f7941d;}.cls-2{fill:#27aae1;}.cls-3{fill:#ed1c24;}.cls-4{fill:#ee2a7b;}.cls-5{fill:#2b3990;}.cls-6{fill:#603913;}.cls-7{fill-rule:evenodd;fill:url(#radial-gradient);}.cls-8{fill:#fff;opacity:0.7;}</style><radialGradient id="radial-gradient" cx="2593.43" cy="2383.43" r="765.81" gradientUnits="userSpaceOnUse"><stop offset="0" stop-color="#fff"/><stop offset="0.27" stop-color="#aee2fa"/><stop offset="0.58" stop-color="#29abe2"/><stop offset="1" stop-color="#264b83"/></radialGradient></defs><path class="cls-1" d="M2310.47,1334.28c-9.49,28.32-18.26,56.45-27.44,84.25s-18.48,55.31-28.31,82.41-20.1,53.8-31.06,80c-5.51,13.07-11.1,26-17,38.83s-11.88,25.45-18.07,37.94a918.34,918.34,0,0,1-55.36,96.37,293.18,293.18,0,0,1-10,69.13c-18.78,68.71-61.14,119.25-119.27,142.32-1,.41-2,.8-3.08,1.19-38.84,14.6-81.72,15.21-123.55,2.57q-13,5.18-26.4,9.7-9.4,3.19-19,6.06t-19.22,5.47c-12.92,3.37-26,6.49-39.24,9.06a742.26,742.26,0,0,1-81,11.37c-13.73,1.13-27.56,2.07-41.47,2.55s-27.89.75-41.93.72c-28.1-.12-56.44-1.4-84.95-3.62s-57.17-5.4-86-9.44q-21.62-3-43.32-6.66c-7.25-1.21-14.49-2.5-21.77-3.8q-5.46-1-10.91-2c-3.65-.67-7.29-1.41-11-2.15,3,2.22,6.13,4.28,9.24,6.36s6.3,4,9.48,6c6.35,4,12.83,7.7,19.37,11.35q19.62,10.92,40.05,20.43a739.66,739.66,0,0,0,172.42,55.73c15,2.92,30.2,5.27,45.48,7.23s30.69,3.34,46.18,4.15a628,628,0,0,0,93.74-1.64c15.69-1.53,31.41-3.52,47-6.35q11.74-2.09,23.43-4.62t23.29-5.66a532.25,532.25,0,0,0,90.61-33.1,518.22,518.22,0,0,0,83.48-49.49,533.52,533.52,0,0,0,72.7-63.8,576.44,576.44,0,0,0,59.88-74.59q13.34-19.67,25-40.19c7.84-13.61,15.05-27.52,21.84-41.55,3.42-7,6.63-14.09,9.76-21.19s6.18-14.22,9.05-21.4c5.74-14.37,11.12-28.81,15.94-43.39s9.24-29.23,13.29-43.93,7.59-29.49,10.72-44.33q9.54-44.48,14.51-89.3t5.81-89.56a810.24,810.24,0,0,0-3.07-89.36C2301,1362.6,2313.28,1364,2310.47,1334.28Z" transform="translate(-1327.08 -1259.82)"/><path class="cls-1" d="M1962.69,1865.08c66.38-25,92.59-118.64,58.53-209.25S1905.73,1512,1839.34,1537s-92.59,118.64-58.53,209.25S1896.3,1890,1962.69,1865.08Z" transform="translate(-1327.08 -1259.82)"/><path class="cls-2" d="M1834.52,2623.54a533.83,533.83,0,0,0-18.9-94.86,577.7,577.7,0,0,0-34.66-89.15c-6.91-14.26-14.39-28.17-22.31-41.73s-16.32-26.79-25.07-39.69c-4.36-6.46-8.89-12.78-13.47-19.05s-9.23-12.46-14-18.54c-9.57-12.15-19.39-24-29.61-35.49s-20.69-22.62-31.4-33.48-21.75-21.32-33-31.45q-33.75-30.49-70.08-57.21t-74.65-49.81a810.07,810.07,0,0,0-78.93-42c19.78,22.38,39.76,44,59.25,65.89s38.65,43.66,57.21,65.72,36.54,44.31,53.73,66.89c8.57,11.31,17,22.64,25.14,34.13s16.1,23,23.82,34.61a910.09,910.09,0,0,1,57.32,99.24,290,290,0,0,1,51.63,41.15c49.72,50.22,72.14,111.7,63.11,173.09-.16,1.08-.32,2.15-.5,3.23-6.57,39.67-26.51,76-56.88,105.34q-2.18,15.54-5.27,31-1.95,9.74-4.23,19.44t-4.87,19.39c-3.56,12.87-7.39,25.75-11.78,38.51a743.3,743.3,0,0,1-30.66,75.83c-5.88,12.46-12,24.9-18.52,37.18s-13.3,24.53-20.35,36.68c-14.15,24.28-29.43,48.18-45.61,71.76s-33.26,46.81-51.16,69.73q-13.4,17.22-27.43,34.19c-4.66,5.67-9.41,11.29-14.17,17-2.38,2.83-4.8,5.63-7.23,8.43s-4.87,5.6-7.34,8.4c3.44-1.5,6.77-3.17,10.14-4.82s6.63-3.44,9.93-5.21c6.6-3.52,13.08-7.27,19.51-11.1q19.27-11.54,37.72-24.47a740.15,740.15,0,0,0,134.48-121.46c10-11.55,19.66-23.51,29-35.77s18.24-24.91,26.69-37.92a627.94,627.94,0,0,0,45.45-82c6.52-14.35,12.65-29,18-43.91q4.07-11.2,7.72-22.6t6.74-23a533.67,533.67,0,0,0,16.64-95A519.19,519.19,0,0,0,1834.52,2623.54Z" transform="translate(-1327.08 -1259.82)"/><path class="cls-2" d="M1674.2,2637.64c11.58-70-56.45-139.5-152-155.31s-182.31,28.1-193.89,98.07,56.45,139.51,152,155.31S1662.62,2707.61,1674.2,2637.64Z" transform="translate(-1327.08 -1259.82)"/><path class="cls-3" d="M2611.35,3697.74c-.23-15-1-29.94-2.33-44.9a740.8,740.8,0,0,0-37.94-177.19c-5-14.47-10.54-28.78-16.49-43s-12.45-28.25-19.49-42.08a629.92,629.92,0,0,0-48.29-80.36c-9.17-12.82-18.76-25.43-29-37.56q-7.68-9.12-15.71-18t-16.55-17.34a532.77,532.77,0,0,0-74-61.92,519.17,519.17,0,0,0-84.6-47.55,532.64,532.64,0,0,0-91.61-31.06,576,576,0,0,0-94.53-14.56c-15.8-1.15-31.58-1.63-47.3-1.54s-31.36.73-46.9,1.86c-7.77.55-15.51,1.3-23.23,2.14s-15.41,1.76-23.06,2.86c-15.31,2.22-30.51,4.78-45.54,7.9s-29.94,6.61-44.7,10.45-29.33,8.18-43.75,12.88q-43.29,14-84.59,32.08t-80.46,39.76a809.11,809.11,0,0,0-75.86,47.34c29.27-5.95,58-12.41,86.68-18.37s57.14-11.64,85.52-16.68,56.65-9.5,84.8-13.09c14.08-1.77,28.11-3.42,42.13-4.72s28-2.43,41.88-3.31a912.17,912.17,0,0,1,111.88-.2,291.86,291.86,0,0,1,64.14-25.52c68.78-18.07,133.63-6.67,182.59,32.08.86.68,1.71,1.36,2.56,2.06,31.86,26.17,53.73,62.71,63.75,104.91q11.29,8.91,22.16,18.45,7.45,6.55,14.72,13.39t14.36,13.91c9.37,9.51,18.61,19.27,27.46,29.46a742,742,0,0,1,50.35,64.46c7.84,11.33,15.57,22.83,22.94,34.63s14.59,23.78,21.59,36q20.91,36.59,39.33,75.37t34.81,79.17q8.22,20.22,15.89,40.85c2.59,6.88,5.08,13.8,7.6,20.75,1.26,3.48,2.47,7,3.68,10.47s2.42,7,3.61,10.56c.42-3.72.64-7.44.89-11.18s.34-7.47.46-11.21C2611.46,3712.71,2611.46,3705.23,2611.35,3697.74Z" transform="translate(-1327.08 -1259.82)"/><path class="cls-3" d="M1976.52,3544.64c54.81,45,149,20.87,210.48-53.93s66.82-171.93,12-216.95-149-20.87-210.48,53.94S1921.71,3499.63,1976.52,3544.64Z" transform="translate(-1327.08 -1259.82)"/><path class="cls-4" d="M3614.51,3009.56c-3.13-2-6.3-4-9.48-6-6.35-4-12.83-7.68-19.36-11.34-13.09-7.28-26.47-14.05-40.06-20.43A740.19,740.19,0,0,0,3373.18,2916c-15-2.91-30.19-5.26-45.47-7.21s-30.69-3.35-46.18-4.16a630.67,630.67,0,0,0-93.74,1.64c-15.69,1.53-31.41,3.53-47,6.35q-11.74,2.09-23.43,4.62t-23.29,5.66a533.11,533.11,0,0,0-90.61,33.1,518.22,518.22,0,0,0-83.48,49.49,532.24,532.24,0,0,0-72.7,63.8,578,578,0,0,0-59.88,74.59q-13.34,19.66-25,40.19c-7.84,13.61-15.05,27.52-21.84,41.55-3.41,7-6.63,14.09-9.76,21.19s-6.18,14.22-9.05,21.4c-5.74,14.37-11.12,28.81-15.94,43.39s-9.24,29.23-13.29,43.93-7.58,29.5-10.72,44.34q-9.54,44.46-14.51,89.29t-5.81,89.56a810.24,810.24,0,0,0,3.07,89.36c9.48-28.32,18.26-56.45,27.44-84.25s18.48-55.31,28.31-82.41,20.1-53.8,31.06-80c5.51-13.07,11.1-26,17-38.83s11.89-25.44,18.07-37.93a915.77,915.77,0,0,1,55.37-96.38,292.66,292.66,0,0,1,10-69.13c18.78-68.71,61.14-119.25,119.27-142.32,1-.41,2-.8,3.08-1.19,38.84-14.6,81.72-15.21,123.55-2.57q13-5.18,26.4-9.7,9.41-3.19,19-6.06t19.22-5.47c12.93-3.37,26-6.49,39.24-9.06a744.71,744.71,0,0,1,81-11.37c13.73-1.13,27.56-2.07,41.46-2.55s27.9-.75,41.94-.72c28.1.12,56.45,1.4,84.95,3.62s57.17,5.4,86,9.44q21.61,3,43.32,6.67c7.25,1.2,14.49,2.5,21.77,3.79q5.46,1,10.91,2.05c3.65.67,7.29,1.42,10.95,2.15C3620.73,3013.7,3617.62,3011.65,3614.51,3009.56Z" transform="translate(-1327.08 -1259.82)"/><path class="cls-4" d="M3135.66,3465.44c66.39-25,92.59-118.63,58.53-209.24s-115.49-143.83-181.88-118.88-92.59,118.64-58.53,209.25S3069.27,3490.4,3135.66,3465.44Z" transform="translate(-1327.08 -1259.82)"/><path class="cls-5" d="M3470.14,2799.74c-18.55-22.06-36.54-44.31-53.73-66.89-8.57-11.31-17-22.64-25.15-34.13s-16.09-23-23.81-34.61a910.09,910.09,0,0,1-57.32-99.24,289.24,289.24,0,0,1-51.62-41.15c-49.73-50.22-72.15-111.7-63.12-173.09.16-1.08.32-2.15.5-3.23,6.57-39.67,26.51-76,56.88-105.34q2.17-15.54,5.27-31,1.93-9.74,4.23-19.44t4.88-19.38c3.54-12.88,7.38-25.75,11.77-38.52a742.38,742.38,0,0,1,30.66-75.83c5.88-12.46,12-24.9,18.52-37.18s13.3-24.53,20.35-36.68c14.15-24.27,29.43-48.18,45.6-71.75s33.27-46.82,51.16-69.74q13.41-17.22,27.44-34.19c4.66-5.67,9.4-11.29,14.17-17,2.38-2.82,4.8-5.62,7.23-8.42s4.87-5.61,7.33-8.41c-3.42,1.5-6.76,3.17-10.12,4.82s-6.64,3.44-9.94,5.21c-6.6,3.52-13.08,7.27-19.51,11.1-12.85,7.69-25.4,15.89-37.72,24.47a740.15,740.15,0,0,0-134.48,121.46c-10,11.55-19.66,23.51-29,35.77s-18.24,24.91-26.69,37.92a627.94,627.94,0,0,0-45.45,82c-6.52,14.35-12.65,29-18,43.91q-4.07,11.21-7.72,22.6t-6.74,23a532.77,532.77,0,0,0-16.64,95,519.19,519.19,0,0,0,1.12,97,533.06,533.06,0,0,0,18.91,94.87,577.43,577.43,0,0,0,34.65,89.15q10.36,21.38,22.31,41.72c7.88,13.6,16.32,26.8,25.07,39.69,4.35,6.46,8.88,12.78,13.47,19.05s9.23,12.46,14,18.54c9.57,12.15,19.39,24,29.61,35.49s20.69,22.62,31.4,33.48,21.75,21.32,33,31.45q33.75,30.51,70.07,57.22t74.66,49.8a810.07,810.07,0,0,0,78.93,42c-19.78-22.38-39.76-44-59.25-65.89S3488.7,2821.8,3470.14,2799.74Z" transform="translate(-1327.08 -1259.82)"/><path class="cls-5" d="M3646.64,2422c11.58-70-56.45-139.51-151.95-155.31s-182.31,28.1-193.89,98.07,56.45,139.5,151.95,155.31S3635.06,2492,3646.64,2422Z" transform="translate(-1327.08 -1259.82)"/><path class="cls-6" d="M3322.89,1782.79c-28.65,6-57.14,11.65-85.52,16.69s-56.65,9.49-84.8,13.08c-14.08,1.77-28.11,3.42-42.13,4.72s-28,2.43-41.88,3.32a914.15,914.15,0,0,1-111.88.19,291.86,291.86,0,0,1-64.14,25.52c-68.78,18.07-133.63,6.67-182.59-32.08-.86-.68-1.71-1.36-2.56-2.06-31.86-26.17-53.73-62.7-63.75-104.91q-11.29-8.91-22.16-18.45-7.45-6.55-14.72-13.39t-14.36-13.91c-9.37-9.51-18.61-19.27-27.46-29.46a743.93,743.93,0,0,1-50.35-64.46c-7.84-11.33-15.57-22.83-22.93-34.63s-14.6-23.78-21.59-36q-20.93-36.6-39.34-75.38t-34.81-79.17q-8.22-20.22-15.9-40.85c-2.58-6.88-5.07-13.8-7.59-20.75-1.26-3.47-2.48-7-3.68-10.47s-2.42-7-3.61-10.56c-.42,3.72-.64,7.45-.89,11.18s-.34,7.47-.46,11.21c-.25,7.48-.25,15-.14,22.45.23,15,1,29.94,2.33,44.9a740.8,740.8,0,0,0,37.94,177.19c5,14.47,10.54,28.79,16.49,43s12.45,28.25,19.49,42.07a629.92,629.92,0,0,0,48.29,80.36c9.17,12.82,18.76,25.43,29,37.56q7.68,9.13,15.71,18t16.55,17.33a533.54,533.54,0,0,0,74,61.93,519.87,519.87,0,0,0,84.6,47.54,533.53,533.53,0,0,0,91.61,31.07,578.16,578.16,0,0,0,94.53,14.56c15.8,1.14,31.58,1.62,47.3,1.54s31.36-.74,46.9-1.87c7.77-.54,15.51-1.3,23.23-2.14s15.41-1.76,23.06-2.86c15.31-2.21,30.51-4.78,45.54-7.9s29.94-6.61,44.69-10.45,29.34-8.18,43.76-12.88q43.29-14,84.59-32.08t80.46-39.75a807.13,807.13,0,0,0,75.86-47.35C3380.3,1770.37,3351.55,1776.83,3322.89,1782.79Z" transform="translate(-1327.08 -1259.82)"/><path class="cls-6" d="M2986.47,1674.7c61.44-74.8,66.82-171.93,12-216.94s-149-20.87-210.48,53.93-66.82,171.93-12,217S2925,1749.51,2986.47,1674.7Z" transform="translate(-1327.08 -1259.82)"/><path class="cls-7" d="M2450.22,1944.85c306.33-30,579.16,194.21,609,500.54s-194.33,579.16-500.65,609.15c-306.33,29.79-579.16-194.43-608.94-500.76C1919.67,2247.45,2143.89,1974.62,2450.22,1944.85Z" transform="translate(-1327.08 -1259.82)"/><path class="cls-8" d="M2540.1,2139.35c7.34-1.95,13.81-4.54,17.05-10.8l1.3-5.17c-2.59-3.24-5.29-6.27-8-9.29a200,200,0,0,0,3.89-21.37c18.45-5.39,14.89.43,30,3.45,1.08,5.83,1.51,9.08,5.4,11.88,4.1,1.72,8,3.45,12.09,5.18,5.61-4.53,11.22-9.29,19.74-10.79,7.24,8.84,14.36,17.7,21.48,26.33,14,10.36,33.24,8.63,41.33,25a26,26,0,0,0,2.81,21.15c11.34,1.29,14.58,1.29,18.67,10.36-1.29,1.73-2.59,3.67-3.88,5.4-10.69.22-27.2,1.94-34.53-3.67,3.88-7.78,10.36-16.62,9.06-25.26-1.3-.43-2.81-.86-4.11-1.29-5.6,3.24-11.43,6.26-17.15,9.5-15-.44-30.12-.65-45-1.09-6,2.16-11,7.78-18.56,10.8v5.39h4.1c8.63-4.52,19.21-9.28,29.14-5.61-3,11.45-4,13.17,2.8,22.67,13.17,4.74,17.92.86,30.44-1.73,0,.43.11.86.11,1.3-2.7,3.24-5.29,6.26-7.88,9.49a92.37,92.37,0,0,0-27.84,12.09c-4.87-1.29-3.89-1.08-6.7-3.89,1.29-1.72,2.59-3.66,4-5.39a63.88,63.88,0,0,0,5.28-4.1v-1.29c-.86-.44-1.72-.87-2.7-1.3-13.27,5-45.43,31.08-50.18,35-25.25,14.24-18.56,11-35.4,32.16-2.37-1.73-6.69,13.38-5.29,18.56-12,17.26-30.65,21.37-35.29,42.52-4.75,20.94,12.09,34.54,8.42,54.18-1.29.87-2.7,1.95-4.1,2.81-3-2.81-6.15-5.4-9.28-8-2.81-13.17-6.48-28.71-13.6-38.2-18.57-.44-44.25-16.41-61.95-8.85-3.46,2.8-13.77-5-15.39-.64-23.52-2.15-24.33,7.11-37.93,28.91-3.45,5.19-7.12,8.64-5,16.19-9.82,38.21-6.48,34.75,21.8,57.63,11-.86,24.61-4.53,31.73-9.49,1.84-7.77,4.1-16.84,7.77-22.67,7-1.94,16.94-3.89,25.15-1.51-1.41,18.56-11.55,38.21-15.87,57.42l1.3,1.29c12.52,0,24.82-.21,37.13-.21,3.66,3.88,7.12,7.77,10.79,11.86-5.61,29.8-16.52,17.06,1.61,34.11,14.14-.43,15.22,11.44,27.74,9.71,7.34,5.4,5.4,10.15,16.52,10.15,7-.86,14.78,4.32,22,4.1,7.23-2.81,15-9.72,25.15-5.39,17.7,12.08,32.6,10.36,54.39,6,4.76,7.34,7.78,7.77,17.38,10.36.43,3.67,1,7.12,1.4,10.79,21.16,1.52,10.58,19.86,24.06,27.63,7.13,0,4.44,7.78,11.55,7.78,21.81,1.93,31.74,19,33.68,40.57.86,10.8,4.31,22.45,20.29,25.48.54,2.59,1,5.17,1.51,7.77,25-6.27,16.84,4.53,32,12.95,9.71.42,28.71,34.1,38.42,34.53,4.31.86,5.82,39.29-5.83,53.1-11.44,13.38-15.87,34.75-26.12,48.78-18.13,25.05-30.21,31.52-54.07,48.79-19,13.59-14.46,27.19-29.89,37.55-21.16,13.82-28.06,45.33-37.13,69.3l-11.87,7.55-13.6-7.35c-5.62-29.35-17.7-16.18-32.59-66.47,1.29-7.78-31.19-64.55-34.87-74-5.6-14-17.37-29.79-29-38-8-5.83-46.62-69.29-48.13-80.08,4.1-4.75-15.54-41.44-13.82-48.35-25.47-18.35,4.14-64.3,8.24-79,6-21.8,1.26-42.34-12.77-49.68-17.16-7.34-37.56-1.51-58.82-15.32-26,5.39-32.92-41.88-49.54-51.16-26.87,15.76-65.62-17.49-81.37-35.18,4.32-37.56-21.59-57.63-33.89-86.13-3.89-9.07-11.87-35.62-16.41-43h-1.29c-2.16.44-4.42.87-6.69,1.52-.22,13.6,27.34,84.69,26.05,84.26-3.56-4.53-18-41.38-27.2-38.65,6.48-38.41-15.9-59.43-9.75-100.65,2.7-17.49,12.41-75.77,23.42-90,2.16-5.61,4.1-10.57,5.61-14.89l-.54-16.62c1.4-7.33,5.29-31.3,10.69-36.69,12.94-12.52,32.59-16.41,47.81-27.63,5.5-6.91,11-13.61,16.62-20.3,7.33-6,14.13-9.71,20.61-16.18-6.48-5.83-17.7-3.67-23.31-11,.64-5.18,1.51-5.39,5.4-7.77,4.53,1.51,9.28,2.59,14.24.43,1.4-11,16.62-20.72,27-23.75,5.62.65,11.34,1.3,17,1.73,12-18.34,32.92-6.47,50.3-19.85,9.39-1.3,12.09.42,17.27,3.45.86,9.49-1.4,12.09-1.62,19.86,9.82,16,33.88,16,42.2,32.16,15.75,9.93,51.92,1.85,59.79,23.09s-5.4,11.66-9.29,14.47c-3.45,9.71-15.1,17.91-21.15,27.84-2.7,4.1,18.35,58.28,22.45,65.41v12.3S2537.29,2145.39,2540.1,2139.35Zm123.68-148.94c-8.52,9.28-14,12.09-17.91,25.69,4.32,21.15,27.3,23.74,38.85,36.26,4.32,7.34,8.63,14.9,13,22.45,1.19,9.28,2.37,18.78,3.67,28.06,4.64,9.93,15.75,17.69,24.39,23.31,7.23,4.74,8.42,10.79,20.51,10.36,21.58-11.66,13-42.09,10.36-66.48-.43-7.77-.87-15.33-1.3-22.88-2.15-5.18-7.34-3-10.36-6.27-4.64-7.76-9.28-15.53-13.82-23.31-12.51-12.73-45.11-28.92-67.34-27.19Zm-111.6,10.79a56.71,56.71,0,0,0-6,1.51c-15.43,17.27,5.4,23.75,17.27,31.08,4.43,2.81,5.83,7.56,11.44,9.5,1.73,1.73,3.24,3.24,5,4.75h-16c-1.72,2.37-3.67,5-5.51,7.55,1.2,2.81,2.27,5.62,3.57,8.42,11.66,2.16,23.42,4.32,35.18,6.48,5.4,1.72,8.42,5.61,14.9,7.34,4.53-2.59,6.47-3.46,6-10.37-3.45-3-7-6-10.57-8.84,1.29-5.83,6.47-9.28,3.56-17.92-3.79-11.44-46.52-39.06-58.83-39.5Zm-86.77,391.56c-.86,1.07-1.62,1.94-2.37,2.8,1.84,9.5,48.57,37.35,59.57,38.64a11,11,0,0,0,1.73-1.08c8.85-18.78-40.58-41.22-58.93-40.36Z" transform="translate(-1327.08 -1259.82)"/></svg>